
<svg xmlns="http://www.w3.org/2000/svg" width="3200" height="1900" viewBox="0 0 3200 1900">
  <defs>
    <marker id="arrow" markerWidth="11" markerHeight="11" refX="9" refY="5.5" orient="auto" markerUnits="strokeWidth"><path d="M0,0 L0,11 L10,5.5 z" fill="#3F474B"/></marker>
    <marker id="arrowOrange" markerWidth="11" markerHeight="11" refX="9" refY="5.5" orient="auto" markerUnits="strokeWidth"><path d="M0,0 L0,11 L10,5.5 z" fill="#D0A900"/></marker>
    <marker id="arrowBlue" markerWidth="11" markerHeight="11" refX="9" refY="5.5" orient="auto" markerUnits="strokeWidth"><path d="M0,0 L0,11 L10,5.5 z" fill="#4C83A8"/></marker>
  </defs>
  <rect width="3200" height="1900" fill="#C8CDCF"/>
  <rect x="45" y="38" width="3110" height="1810" fill="#F7F8F8" stroke="#7C8488" stroke-width="2"/>
  <text x="1600" y="78" text-anchor="middle" font-family="Segoe UI, Arial, sans-serif" font-size="30" font-weight="700" fill="#171B1D">Logical Architecture · TAPP Account Provider with CDC Workaround</text>
  <text x="70" y="111" font-family="Segoe UI, Arial, sans-serif" font-size="17" fill="#525A5E">Rational Architecture style · Logical view · Proposed target state</text>

  <g><rect x="70" y="135" width="3060" height="300" fill="#E2E5E6" stroke="#858C90" stroke-width="2" /><text x="88" y="166" font-family="Segoe UI, Arial, sans-serif" font-size="24" font-weight="600" fill="#171B1D">External Channel &amp; API Security Zone</text><path d="M3096 150 h20 v16 h-20 z M3100 146 h10 l4 4" fill="none" stroke="#3F474B" stroke-width="2"/></g>
  <g><rect x="105" y="215" width="250" height="120" fill="#E8EAEB" stroke="#838B8F" stroke-width="2"/><text x="117" y="237" font-family="Segoe UI, Arial, sans-serif" font-size="15" fill="#525A5E">«External Application»</text><g stroke="#838B8F" fill="none" stroke-width="2"><rect x="325" y="225" width="22" height="17"/><rect x="318" y="228" width="9" height="5"/><rect x="318" y="235" width="9" height="5"/></g><text x="230" y="270.5" text-anchor="middle" font-family="Segoe UI, Arial, sans-serif" font-size="22" font-weight="600" fill="#171B1D"><tspan x="230" dy="0">TAPP Platform</tspan><tspan x="230" dy="27">(BCRP)</tspan></text></g>
  <g><rect x="395" y="185" width="300" height="190" fill="#EEF0F1" stroke="#858C90" stroke-width="2" /><text x="413" y="216" font-family="Segoe UI, Arial, sans-serif" font-size="20" font-weight="600" fill="#171B1D">Niubiz / Juspay</text><path d="M661 200 h20 v16 h-20 z M665 196 h10 l4 4" fill="none" stroke="#3F474B" stroke-width="2"/></g>
  <g><rect x="430" y="235" width="230" height="100" fill="#56ED39" stroke="#32B526" stroke-width="2"/><text x="442" y="257" font-family="Segoe UI, Arial, sans-serif" font-size="15" fill="#525A5E">«Application Component»</text><g stroke="#32B526" fill="none" stroke-width="2"><rect x="630" y="245" width="22" height="17"/><rect x="623" y="248" width="9" height="5"/><rect x="623" y="255" width="9" height="5"/></g><text x="545" y="281.5" text-anchor="middle" font-family="Segoe UI, Arial, sans-serif" font-size="20" font-weight="600" fill="#171B1D"><tspan x="545" dy="0">Juspay API</tspan><tspan x="545" dy="25">Issuer Switch</tspan></text></g>
  <g><rect x="735" y="185" width="330" height="190" fill="#EEF0F1" stroke="#858C90" stroke-width="2" /><text x="753" y="216" font-family="Segoe UI, Arial, sans-serif" font-size="20" font-weight="600" fill="#171B1D">First Akamai Leg</text><path d="M1031 200 h20 v16 h-20 z M1035 196 h10 l4 4" fill="none" stroke="#3F474B" stroke-width="2"/></g>
  <g><rect x="780" y="235" width="240" height="100" fill="#E8EAEB" stroke="#838B8F" stroke-width="2"/><text x="791" y="256" font-family="Segoe UI, Arial, sans-serif" font-size="14" fill="#525A5E">«Network Service»</text><text x="900" y="282" text-anchor="middle" font-family="Segoe UI, Arial, sans-serif" font-size="21" font-weight="600" fill="#171B1D"><tspan x="900" dy="0">Akamai Edge</tspan><tspan x="900" dy="26">mTLS</tspan></text></g>
  <g><rect x="1105" y="185" width="330" height="190" fill="#EEF0F1" stroke="#858C90" stroke-width="2" /><text x="1123" y="216" font-family="Segoe UI, Arial, sans-serif" font-size="20" font-weight="600" fill="#171B1D">GCP API Gateway</text><path d="M1401 200 h20 v16 h-20 z M1405 196 h10 l4 4" fill="none" stroke="#3F474B" stroke-width="2"/></g>
  <g><rect x="1150" y="235" width="240" height="100" fill="#E8EAEB" stroke="#838B8F" stroke-width="2"/><text x="1161" y="256" font-family="Segoe UI, Arial, sans-serif" font-size="14" fill="#525A5E">«API Gateway»</text><text x="1270" y="282" text-anchor="middle" font-family="Segoe UI, Arial, sans-serif" font-size="21" font-weight="600" fill="#171B1D"><tspan x="1270" dy="0">Apigee</tspan><tspan x="1270" dy="26">API Key Validation</tspan></text></g>
  <g><rect x="1475" y="185" width="330" height="190" fill="#EEF0F1" stroke="#858C90" stroke-width="2" /><text x="1493" y="216" font-family="Segoe UI, Arial, sans-serif" font-size="20" font-weight="600" fill="#171B1D">Second Akamai Leg</text><path d="M1771 200 h20 v16 h-20 z M1775 196 h10 l4 4" fill="none" stroke="#3F474B" stroke-width="2"/></g>
  <g><rect x="1520" y="235" width="240" height="100" fill="#E8EAEB" stroke="#838B8F" stroke-width="2"/><text x="1531" y="256" font-family="Segoe UI, Arial, sans-serif" font-size="14" fill="#525A5E">«Network Service»</text><text x="1640" y="282" text-anchor="middle" font-family="Segoe UI, Arial, sans-serif" font-size="21" font-weight="600" fill="#171B1D"><tspan x="1640" dy="0">Akamai L4</tspan><tspan x="1640" dy="26">mTLS + IP Allowlist</tspan></text></g>
  <g><rect x="1850" y="235" width="240" height="100" fill="#E8EAEB" stroke="#838B8F" stroke-width="2"/><text x="1861" y="256" font-family="Segoe UI, Arial, sans-serif" font-size="14" fill="#525A5E">«Security Service»</text><text x="1970" y="282" text-anchor="middle" font-family="Segoe UI, Arial, sans-serif" font-size="21" font-weight="600" fill="#171B1D"><tspan x="1970" dy="0">SIA</tspan><tspan x="1970" dy="26">Authentication</tspan></text></g>
  <g><rect x="2130" y="235" width="240" height="100" fill="#E8EAEB" stroke="#838B8F" stroke-width="2"/><text x="2141" y="256" font-family="Segoe UI, Arial, sans-serif" font-size="14" fill="#525A5E">«Network Service»</text><text x="2250" y="282" text-anchor="middle" font-family="Segoe UI, Arial, sans-serif" font-size="21" font-weight="600" fill="#171B1D"><tspan x="2250" dy="0">GCP Global</tspan><tspan x="2250" dy="26">Load Balancer</tspan></text></g>
  <g><rect x="2410" y="235" width="300" height="100" fill="#56ED39" stroke="#32B526" stroke-width="2"/><text x="2422" y="257" font-family="Segoe UI, Arial, sans-serif" font-size="15" fill="#525A5E">«Application Component»</text><g stroke="#32B526" fill="none" stroke-width="2"><rect x="2680" y="245" width="22" height="17"/><rect x="2673" y="248" width="9" height="5"/><rect x="2673" y="255" width="9" height="5"/></g><text x="2560" y="281.5" text-anchor="middle" font-family="Segoe UI, Arial, sans-serif" font-size="20" font-weight="600" fill="#171B1D"><tspan x="2560" dy="0">Contacts Payment</tspan><tspan x="2560" dy="25">Services</tspan></text></g>
  <g><rect x="2750" y="235" width="300" height="100" fill="#56ED39" stroke="#32B526" stroke-width="2"/><text x="2762" y="257" font-family="Segoe UI, Arial, sans-serif" font-size="15" fill="#525A5E">«Application Component»</text><g stroke="#32B526" fill="none" stroke-width="2"><rect x="3020" y="245" width="22" height="17"/><rect x="3013" y="248" width="9" height="5"/><rect x="3013" y="255" width="9" height="5"/></g><text x="2900" y="281.5" text-anchor="middle" font-family="Segoe UI, Arial, sans-serif" font-size="20" font-weight="600" fill="#171B1D"><tspan x="2900" dy="0">Guardian Mediator</tspan><tspan x="2900" dy="25">Services</tspan></text></g>

  <g><polyline points="355,275 395,275" fill="none" stroke="#3F474B" stroke-width="3"  marker-end="url(#arrow)"/></g>
  <g><polyline points="695,275 735,275" fill="none" stroke="#3F474B" stroke-width="3"  marker-end="url(#arrow)"/></g>
  <g><polyline points="1065,275 1105,275" fill="none" stroke="#3F474B" stroke-width="3"  marker-end="url(#arrow)"/></g>
  <g><polyline points="1435,275 1475,275" fill="none" stroke="#3F474B" stroke-width="3"  marker-end="url(#arrow)"/></g>
  <g><polyline points="1805,275 1850,275" fill="none" stroke="#3F474B" stroke-width="3"  marker-end="url(#arrow)"/></g>
  <g><polyline points="2090,275 2130,275" fill="none" stroke="#3F474B" stroke-width="3"  marker-end="url(#arrow)"/></g>
  <g><polyline points="2370,275 2410,275" fill="none" stroke="#3F474B" stroke-width="3"  marker-end="url(#arrow)"/></g>
  <g><polyline points="2710,275 2750,275" fill="none" stroke="#3F474B" stroke-width="3"  marker-end="url(#arrow)"/></g>

  <g><rect x="70" y="465" width="3060" height="610" fill="#E0E3E4" stroke="#858C90" stroke-width="2" /><text x="88" y="496" font-family="Segoe UI, Arial, sans-serif" font-size="24" font-weight="600" fill="#171B1D">Scotiabank Runtime &amp; Data Zone</text><path d="M3096 480 h20 v16 h-20 z M3100 476 h10 l4 4" fill="none" stroke="#3F474B" stroke-width="2"/></g>
  <g><rect x="105" y="520" width="1270" height="505" fill="#EDF0F0" stroke="#858C90" stroke-width="2" /><text x="123" y="551" font-family="Segoe UI, Arial, sans-serif" font-size="24" font-weight="600" fill="#171B1D">GCP for Scotiabank · Atlas BNS GKE</text><path d="M1341 535 h20 v16 h-20 z M1345 531 h10 l4 4" fill="none" stroke="#3F474B" stroke-width="2"/></g>
  <g><rect x="140" y="575" width="575" height="395" fill="#E4E7E8" stroke="#858C90" stroke-width="2" /><text x="158" y="606" font-family="Segoe UI, Arial, sans-serif" font-size="20" font-weight="600" fill="#171B1D">Application Services</text><path d="M681 590 h20 v16 h-20 z M685 586 h10 l4 4" fill="none" stroke="#3F474B" stroke-width="2"/></g>
  <g><rect x="175" y="645" width="230" height="105" fill="#56ED39" stroke="#32B526" stroke-width="2"/><text x="187" y="667" font-family="Segoe UI, Arial, sans-serif" font-size="15" fill="#525A5E">«Application Component»</text><g stroke="#32B526" fill="none" stroke-width="2"><rect x="375" y="655" width="22" height="17"/><rect x="368" y="658" width="9" height="5"/><rect x="368" y="665" width="9" height="5"/></g><text x="290" y="695" text-anchor="middle" font-family="Segoe UI, Arial, sans-serif" font-size="18" font-weight="600" fill="#171B1D"><tspan x="290" dy="0">TAPP Debit</tspan><tspan x="290" dy="23">Payment Service</tspan></text></g>
  <g><rect x="445" y="645" width="230" height="105" fill="#56ED39" stroke="#32B526" stroke-width="2"/><text x="457" y="667" font-family="Segoe UI, Arial, sans-serif" font-size="15" fill="#525A5E">«Application Component»</text><g stroke="#32B526" fill="none" stroke-width="2"><rect x="645" y="655" width="22" height="17"/><rect x="638" y="658" width="9" height="5"/><rect x="638" y="665" width="9" height="5"/></g><text x="560" y="695" text-anchor="middle" font-family="Segoe UI, Arial, sans-serif" font-size="18" font-weight="600" fill="#171B1D"><tspan x="560" dy="0">TAPP Credit</tspan><tspan x="560" dy="23">Payment Service</tspan></text></g>
  <g><rect x="175" y="800" width="230" height="105" fill="#56ED39" stroke="#32B526" stroke-width="2"/><text x="187" y="822" font-family="Segoe UI, Arial, sans-serif" font-size="15" fill="#525A5E">«Application Component»</text><g stroke="#32B526" fill="none" stroke-width="2"><rect x="375" y="810" width="22" height="17"/><rect x="368" y="813" width="9" height="5"/><rect x="368" y="820" width="9" height="5"/></g><text x="290" y="850" text-anchor="middle" font-family="Segoe UI, Arial, sans-serif" font-size="18" font-weight="600" fill="#171B1D"><tspan x="290" dy="0">Customer Account</tspan><tspan x="290" dy="23">Service</tspan></text></g>
  <g><rect x="445" y="800" width="230" height="105" fill="#56ED39" stroke="#32B526" stroke-width="2"/><text x="457" y="822" font-family="Segoe UI, Arial, sans-serif" font-size="15" fill="#525A5E">«Application Component»</text><g stroke="#32B526" fill="none" stroke-width="2"><rect x="645" y="810" width="22" height="17"/><rect x="638" y="813" width="9" height="5"/><rect x="638" y="820" width="9" height="5"/></g><text x="560" y="850" text-anchor="middle" font-family="Segoe UI, Arial, sans-serif" font-size="18" font-weight="600" fill="#171B1D"><tspan x="560" dy="0">Customer Profile</tspan><tspan x="560" dy="23">Service</tspan></text></g>
  <g><rect x="755" y="575" width="585" height="395" fill="#E4E7E8" stroke="#858C90" stroke-width="2" /><text x="773" y="606" font-family="Segoe UI, Arial, sans-serif" font-size="20" font-weight="600" fill="#171B1D">Domain &amp; Integration Services</text><path d="M1306 590 h20 v16 h-20 z M1310 586 h10 l4 4" fill="none" stroke="#3F474B" stroke-width="2"/></g>
  <g><rect x="790" y="645" width="235" height="105" fill="#56ED39" stroke="#32B526" stroke-width="2"/><text x="802" y="667" font-family="Segoe UI, Arial, sans-serif" font-size="15" fill="#525A5E">«Application Component»</text><g stroke="#32B526" fill="none" stroke-width="2"><rect x="995" y="655" width="22" height="17"/><rect x="988" y="658" width="9" height="5"/><rect x="988" y="665" width="9" height="5"/></g><text x="907.5" y="695" text-anchor="middle" font-family="Segoe UI, Arial, sans-serif" font-size="18" font-weight="600" fill="#171B1D"><tspan x="907.5" dy="0">Guardian</tspan><tspan x="907.5" dy="23">Payment Mediator</tspan></text></g>
  <g><rect x="1065" y="645" width="235" height="105" fill="#56ED39" stroke="#32B526" stroke-width="2"/><text x="1077" y="667" font-family="Segoe UI, Arial, sans-serif" font-size="15" fill="#525A5E">«Application Component»</text><g stroke="#32B526" fill="none" stroke-width="2"><rect x="1270" y="655" width="22" height="17"/><rect x="1263" y="658" width="9" height="5"/><rect x="1263" y="665" width="9" height="5"/></g><text x="1182.5" y="695" text-anchor="middle" font-family="Segoe UI, Arial, sans-serif" font-size="18" font-weight="600" fill="#171B1D"><tspan x="1182.5" dy="0">Debit / Credit</tspan><tspan x="1182.5" dy="23">Domain Services</tspan></text></g>
  <g><rect x="790" y="800" width="235" height="105" fill="#56ED39" stroke="#32B526" stroke-width="2"/><text x="802" y="822" font-family="Segoe UI, Arial, sans-serif" font-size="15" fill="#525A5E">«Application Component»</text><g stroke="#32B526" fill="none" stroke-width="2"><rect x="995" y="810" width="22" height="17"/><rect x="988" y="813" width="9" height="5"/><rect x="988" y="820" width="9" height="5"/></g><text x="907.5" y="850" text-anchor="middle" font-family="Segoe UI, Arial, sans-serif" font-size="18" font-weight="600" fill="#171B1D"><tspan x="907.5" dy="0">Account</tspan><tspan x="907.5" dy="23">Domain Service</tspan></text></g>
  <g><rect x="1065" y="800" width="235" height="105" fill="#56ED39" stroke="#32B526" stroke-width="2"/><text x="1077" y="822" font-family="Segoe UI, Arial, sans-serif" font-size="15" fill="#525A5E">«Application Component»</text><g stroke="#32B526" fill="none" stroke-width="2"><rect x="1270" y="810" width="22" height="17"/><rect x="1263" y="813" width="9" height="5"/><rect x="1263" y="820" width="9" height="5"/></g><text x="1182.5" y="850" text-anchor="middle" font-family="Segoe UI, Arial, sans-serif" font-size="18" font-weight="600" fill="#171B1D"><tspan x="1182.5" dy="0">Customer Profile</tspan><tspan x="1182.5" dy="23">Domain Service</tspan></text></g>

  <g><rect x="1415" y="520" width="890" height="505" fill="#EDF0F0" stroke="#858C90" stroke-width="2" /><text x="1433" y="551" font-family="Segoe UI, Arial, sans-serif" font-size="24" font-weight="600" fill="#171B1D">Anthos Peru GKE OnPrem · Backend Services</text><path d="M2271 535 h20 v16 h-20 z M2275 531 h10 l4 4" fill="none" stroke="#3F474B" stroke-width="2"/></g>
  <g><rect x="1460" y="620" width="360" height="110" fill="#E8EAEB" stroke="#838B8F" stroke-width="2"/><text x="1472" y="642" font-family="Segoe UI, Arial, sans-serif" font-size="15" fill="#525A5E">«Application Component»</text><g stroke="#838B8F" fill="none" stroke-width="2"><rect x="1790" y="630" width="22" height="17"/><rect x="1783" y="633" width="9" height="5"/><rect x="1783" y="640" width="9" height="5"/></g><text x="1640" y="672" text-anchor="middle" font-family="Segoe UI, Arial, sans-serif" font-size="19" font-weight="600" fill="#171B1D"><tspan x="1640" dy="0">Debit / Credit</tspan><tspan x="1640" dy="24">Payment Backends</tspan></text></g>
  <g><rect x="1865" y="620" width="390" height="110" fill="#E8EAEB" stroke="#838B8F" stroke-width="2"/><text x="1877" y="642" font-family="Segoe UI, Arial, sans-serif" font-size="15" fill="#525A5E">«Application Component»</text><g stroke="#838B8F" fill="none" stroke-width="2"><rect x="2225" y="630" width="22" height="17"/><rect x="2218" y="633" width="9" height="5"/><rect x="2218" y="640" width="9" height="5"/></g><text x="2060" y="672" text-anchor="middle" font-family="Segoe UI, Arial, sans-serif" font-size="19" font-weight="600" fill="#171B1D"><tspan x="2060" dy="0">Customer Account</tspan><tspan x="2060" dy="24">Balance Service</tspan></text></g>
  <g><rect x="1460" y="800" width="360" height="110" fill="#FFF36A" stroke="#D0A900" stroke-width="2"/><text x="1472" y="822" font-family="Segoe UI, Arial, sans-serif" font-size="15" fill="#525A5E">«Application Component»</text><g stroke="#D0A900" fill="none" stroke-width="2"><rect x="1790" y="810" width="22" height="17"/><rect x="1783" y="813" width="9" height="5"/><rect x="1783" y="820" width="9" height="5"/></g><text x="1640" y="852" text-anchor="middle" font-family="Segoe UI, Arial, sans-serif" font-size="19" font-weight="600" fill="#171B1D"><tspan x="1640" dy="0">fac-m-accounts-api</tspan><tspan x="1640" dy="24">Accounts / Balance</tspan></text></g>
  <g><rect x="1865" y="800" width="390" height="110" fill="#FFF36A" stroke="#D0A900" stroke-width="2"/><text x="1877" y="822" font-family="Segoe UI, Arial, sans-serif" font-size="15" fill="#525A5E">«Application Component»</text><g stroke="#D0A900" fill="none" stroke-width="2"><rect x="2225" y="810" width="22" height="17"/><rect x="2218" y="813" width="9" height="5"/><rect x="2218" y="820" width="9" height="5"/></g><text x="2060" y="853" text-anchor="middle" font-family="Segoe UI, Arial, sans-serif" font-size="17" font-weight="600" fill="#171B1D"><tspan x="2060" dy="0">cust-m-personal-information-api</tspan><tspan x="2060" dy="22">Customer Lookup</tspan></text></g>

  <g><rect x="2345" y="520" width="750" height="505" fill="#EDF0F0" stroke="#858C90" stroke-width="2" /><text x="2363" y="551" font-family="Segoe UI, Arial, sans-serif" font-size="24" font-weight="600" fill="#171B1D">iSeries AS400 · Core Banking</text><path d="M3061 535 h20 v16 h-20 z M3065 531 h10 l4 4" fill="none" stroke="#3F474B" stroke-width="2"/></g>
  <g><rect x="2390" y="610" width="300" height="105" fill="#56ED39" stroke="#32B526" stroke-width="2"/><text x="2402" y="632" font-family="Segoe UI, Arial, sans-serif" font-size="15" fill="#525A5E">«Application Component»</text><g stroke="#32B526" fill="none" stroke-width="2"><rect x="2660" y="620" width="22" height="17"/><rect x="2653" y="623" width="9" height="5"/><rect x="2653" y="630" width="9" height="5"/></g><text x="2540" y="659.5" text-anchor="middle" font-family="Segoe UI, Arial, sans-serif" font-size="19" font-weight="600" fill="#171B1D"><tspan x="2540" dy="0">TP02</tspan><tspan x="2540" dy="24">Debit Payment</tspan></text></g>
  <g><rect x="2740" y="610" width="300" height="105" fill="#56ED39" stroke="#32B526" stroke-width="2"/><text x="2752" y="632" font-family="Segoe UI, Arial, sans-serif" font-size="15" fill="#525A5E">«Application Component»</text><g stroke="#32B526" fill="none" stroke-width="2"><rect x="3010" y="620" width="22" height="17"/><rect x="3003" y="623" width="9" height="5"/><rect x="3003" y="630" width="9" height="5"/></g><text x="2890" y="659.5" text-anchor="middle" font-family="Segoe UI, Arial, sans-serif" font-size="19" font-weight="600" fill="#171B1D"><tspan x="2890" dy="0">TP03 / TP04</tspan><tspan x="2890" dy="24">Credit / Reversal</tspan></text></g>
  <g><rect x="2390" y="800" width="300" height="105" fill="#E8EAEB" stroke="#838B8F" stroke-width="2"/><text x="2402" y="822" font-family="Segoe UI, Arial, sans-serif" font-size="15" fill="#525A5E">«Application Component»</text><g stroke="#838B8F" fill="none" stroke-width="2"><rect x="2660" y="810" width="22" height="17"/><rect x="2653" y="813" width="9" height="5"/><rect x="2653" y="820" width="9" height="5"/></g><text x="2540" y="849.5" text-anchor="middle" font-family="Segoe UI, Arial, sans-serif" font-size="19" font-weight="600" fill="#171B1D"><tspan x="2540" dy="0">WJ24 / JN24</tspan><tspan x="2540" dy="24">Customer Accounts</tspan></text></g>
  <g><rect x="2740" y="800" width="300" height="105" fill="#FFF36A" stroke="#D0A900" stroke-width="2"/><text x="2752" y="822" font-family="Segoe UI, Arial, sans-serif" font-size="15" fill="#525A5E">«Application Component»</text><g stroke="#D0A900" fill="none" stroke-width="2"><rect x="3010" y="810" width="22" height="17"/><rect x="3003" y="813" width="9" height="5"/><rect x="3003" y="820" width="9" height="5"/></g><text x="2890" y="849.5" text-anchor="middle" font-family="Segoe UI, Arial, sans-serif" font-size="19" font-weight="600" fill="#171B1D"><tspan x="2890" dy="0">QP48</tspan><tspan x="2890" dy="24">Customer Query</tspan></text></g>

  <g><polyline points="675,697 790,697" fill="none" stroke="#3F474B" stroke-width="3"  marker-end="url(#arrow)"/></g>
  <g><polyline points="1025,697 1460,675" fill="none" stroke="#3F474B" stroke-width="3"  marker-end="url(#arrow)"/></g>
  <g><polyline points="1300,697 1460,675" fill="none" stroke="#3F474B" stroke-width="3"  marker-end="url(#arrow)"/></g>
  <g><polyline points="1025,852 1865,675" fill="none" stroke="#3F474B" stroke-width="3"  marker-end="url(#arrow)"/></g>
  <g><polyline points="1300,852 1865,675" fill="none" stroke="#3F474B" stroke-width="3"  marker-end="url(#arrow)"/></g>
  <g><polyline points="1820,675 2345,675 2390,663" fill="none" stroke="#3F474B" stroke-width="3"  marker-end="url(#arrow)"/></g>
  <g><polyline points="2255,675 2345,675 2390,852" fill="none" stroke="#3F474B" stroke-width="3"  marker-end="url(#arrow)"/></g>
  <g><polyline points="1820,855 2345,855 2390,852" fill="none" stroke="#3F474B" stroke-width="3" stroke-dasharray="8 6" marker-end="url(#arrow)"/></g>
  <g><polyline points="2255,855 2740,852" fill="none" stroke="#3F474B" stroke-width="3" stroke-dasharray="8 6" marker-end="url(#arrow)"/></g>

  <g><rect x="70" y="1110" width="3060" height="680" fill="#ECEEEE" stroke="#D0A900" stroke-width="2" /><text x="88" y="1141" font-family="Segoe UI, Arial, sans-serif" font-size="24" font-weight="600" fill="#171B1D">CDC WORKAROUND · Asynchronous Read Model Synchronization</text><path d="M3096 1125 h20 v16 h-20 z M3100 1121 h10 l4 4" fill="none" stroke="#3F474B" stroke-width="2"/></g>
  <g><path d="M120 1258 C120 1235, 400 1235, 400 1258 V1372 C400 1395, 120 1395, 120 1372 Z" fill="#E8EAEB" stroke="#747C80" stroke-width="2"/><ellipse cx="260" cy="1258" rx="140" ry="18" fill="#E8EAEB" stroke="#747C80" stroke-width="2"/><text x="260" y="1310.5" text-anchor="middle" font-family="Segoe UI, Arial, sans-serif" font-size="20" font-weight="600" fill="#171B1D"><tspan x="260" dy="0">AS400 Tables</tspan><tspan x="260" dy="25">Account / Customer</tspan></text></g>
  <g><rect x="475" y="1240" width="280" height="150" fill="#FFF36A" stroke="#D0A900" stroke-width="2"/><text x="486" y="1261" font-family="Segoe UI, Arial, sans-serif" font-size="14" fill="#525A5E">«CDC Workaround»</text><text x="615" y="1312" text-anchor="middle" font-family="Segoe UI, Arial, sans-serif" font-size="21" font-weight="600" fill="#171B1D"><tspan x="615" dy="0">DQ / Change Query</tspan><tspan x="615" dy="26">Watermark T0</tspan></text></g>
  <g><rect x="830" y="1240" width="300" height="150" fill="#FFF36A" stroke="#D0A900" stroke-width="2"/><text x="842" y="1262" font-family="Segoe UI, Arial, sans-serif" font-size="15" fill="#525A5E">«Application Component»</text><g stroke="#D0A900" fill="none" stroke-width="2"><rect x="1100" y="1250" width="22" height="17"/><rect x="1093" y="1253" width="9" height="5"/><rect x="1093" y="1260" width="9" height="5"/></g><text x="980" y="1311.5" text-anchor="middle" font-family="Segoe UI, Arial, sans-serif" font-size="20" font-weight="600" fill="#171B1D"><tspan x="980" dy="0">Listener / Producer</tspan><tspan x="980" dy="25">Avro Events</tspan></text></g>

  <g><rect x="1205" y="1190" width="430" height="315" fill="#E3E7E9" stroke="#4C83A8" stroke-width="2" /><text x="1223" y="1221" font-family="Segoe UI, Arial, sans-serif" font-size="24" font-weight="600" fill="#171B1D">Kafka Platform</text><path d="M1601 1205 h20 v16 h-20 z M1605 1201 h10 l4 4" fill="none" stroke="#3F474B" stroke-width="2"/></g>
  <g><rect x="1245" y="1255" width="350" height="50" fill="#B9DAF2" stroke="#4C83A8" stroke-width="2"/><text x="1257" y="1275" font-family="Segoe UI, Arial, sans-serif" font-size="14" fill="#525A5E">«Kafka Topic»</text><text x="1420" y="1295" text-anchor="middle" font-family="Consolas, monospace" font-size="18" font-weight="600" fill="#171B1D">account-domain</text></g>
  <g><rect x="1245" y="1325" width="350" height="50" fill="#B9DAF2" stroke="#4C83A8" stroke-width="2"/><text x="1257" y="1345" font-family="Segoe UI, Arial, sans-serif" font-size="14" fill="#525A5E">«Kafka Topic»</text><text x="1420" y="1365" text-anchor="middle" font-family="Consolas, monospace" font-size="18" font-weight="600" fill="#171B1D">customer-domain</text></g>
  <g><rect x="1245" y="1395" width="165" height="50" fill="#B9DAF2" stroke="#4C83A8" stroke-width="2"/><text x="1257" y="1415" font-family="Segoe UI, Arial, sans-serif" font-size="14" fill="#525A5E">«Kafka Topic»</text><text x="1327.5" y="1435" text-anchor="middle" font-family="Consolas, monospace" font-size="18" font-weight="600" fill="#171B1D">retry</text></g>
  <g><rect x="1430" y="1395" width="165" height="50" fill="#B9DAF2" stroke="#4C83A8" stroke-width="2"/><text x="1442" y="1415" font-family="Segoe UI, Arial, sans-serif" font-size="14" fill="#525A5E">«Kafka Topic»</text><text x="1512.5" y="1435" text-anchor="middle" font-family="Consolas, monospace" font-size="18" font-weight="600" fill="#171B1D">dlq</text></g>

  <g><rect x="1710" y="1190" width="500" height="315" fill="#FFF36A" stroke="#D0A900" stroke-width="2"/><text x="1722" y="1212" font-family="Segoe UI, Arial, sans-serif" font-size="15" fill="#525A5E">«Application Component»</text><g stroke="#D0A900" fill="none" stroke-width="2"><rect x="2180" y="1200" width="22" height="17"/><rect x="2173" y="1203" width="9" height="5"/><rect x="2173" y="1210" width="9" height="5"/></g><text x="1960" y="1327.5" text-anchor="middle" font-family="Segoe UI, Arial, sans-serif" font-size="24" font-weight="600" fill="#171B1D"><tspan x="1960" dy="0">Bridge Java</tspan><tspan x="1960" dy="29">Kafka → MongoDB</tspan><tspan x="1960" dy="29">Consumer Group</tspan></text></g>
  <text x="1750" y="1405" font-family="Segoe UI, Arial, sans-serif" font-size="18" fill="#525A5E">
    <tspan x="1750">Validate Avro · sourceSequence · idempotency</tspan>
    <tspan x="1750" dy="27">Conditional upsert · commit after Mongo write</tspan>
  </text>
  <g><path d="M2290 1233 C2290 1210, 2630 1210, 2630 1233 V1387 C2630 1410, 2290 1410, 2290 1387 Z" fill="#74E85A" stroke="#2D9D28" stroke-width="2"/><ellipse cx="2460" cy="1233" rx="170" ry="18" fill="#74E85A" stroke="#2D9D28" stroke-width="2"/><text x="2460" y="1292" text-anchor="middle" font-family="Segoe UI, Arial, sans-serif" font-size="21" font-weight="600" fill="#171B1D"><tspan x="2460" dy="0">MongoDB Atlas</tspan><tspan x="2460" dy="26">Account Collection</tspan><tspan x="2460" dy="26">Customer Collection</tspan></text></g>
  <g><rect x="2710" y="1240" width="340" height="150" fill="#56ED39" stroke="#32B526" stroke-width="2"/><text x="2722" y="1262" font-family="Segoe UI, Arial, sans-serif" font-size="15" fill="#525A5E">«Application Component»</text><g stroke="#32B526" fill="none" stroke-width="2"><rect x="3020" y="1250" width="22" height="17"/><rect x="3013" y="1253" width="9" height="5"/><rect x="3013" y="1260" width="9" height="5"/></g><text x="2880" y="1311.5" text-anchor="middle" font-family="Segoe UI, Arial, sans-serif" font-size="20" font-weight="600" fill="#171B1D"><tspan x="2880" dy="0">Account / Customer</tspan><tspan x="2880" dy="25">Read Services</tspan></text></g>

  <g><polyline points="400,1315 475,1315" fill="none" stroke="#D0A900" stroke-width="4"  marker-end="url(#arrowOrange)"/></g>
  <g><polyline points="755,1315 830,1315" fill="none" stroke="#D0A900" stroke-width="4"  marker-end="url(#arrowOrange)"/></g>
  <g><polyline points="1130,1315 1205,1315" fill="none" stroke="#D0A900" stroke-width="4"  marker-end="url(#arrowOrange)"/><rect x="1084" y="1272" width="276" height="26" fill="#F7F8F8" opacity="0.92"/><text x="1090" y="1292" font-family="Segoe UI, Arial, sans-serif" font-size="18" fill="#525A5E">CREATE · UPDATE · DELETE</text></g>
  <g><polyline points="1635,1345 1710,1345" fill="none" stroke="#D0A900" stroke-width="4"  marker-end="url(#arrowOrange)"/></g>
  <g><polyline points="2210,1345 2290,1310" fill="none" stroke="#D0A900" stroke-width="4"  marker-end="url(#arrowOrange)"/><rect x="2204" y="1275" width="177" height="26" fill="#F7F8F8" opacity="0.92"/><text x="2210" y="1295" font-family="Segoe UI, Arial, sans-serif" font-size="18" fill="#525A5E">upsert + commit</text></g>
  <g><polyline points="2630,1310 2710,1315" fill="none" stroke="#4C83A8" stroke-width="4"  marker-end="url(#arrowBlue)"/><rect x="2634" y="1260" width="122" height="26" fill="#F7F8F8" opacity="0.92"/><text x="2640" y="1280" font-family="Segoe UI, Arial, sans-serif" font-size="18" fill="#525A5E">read model</text></g>

  <g><rect x="475" y="1570" width="280" height="110" fill="#FFF36A" stroke="#D0A900" stroke-width="2"/><text x="486" y="1591" font-family="Segoe UI, Arial, sans-serif" font-size="14" fill="#525A5E">«Batch Process»</text><text x="615" y="1623" text-anchor="middle" font-family="Segoe UI, Arial, sans-serif" font-size="19" font-weight="600" fill="#171B1D"><tspan x="615" dy="0">ETL Initial Load</tspan><tspan x="615" dy="24">Snapshot + T0</tspan></text></g>
  <g><rect x="830" y="1570" width="300" height="110" fill="#E8EAEB" stroke="#838B8F" stroke-width="2"/><text x="841" y="1591" font-family="Segoe UI, Arial, sans-serif" font-size="14" fill="#525A5E">«Platform Service»</text><text x="980" y="1623" text-anchor="middle" font-family="Segoe UI, Arial, sans-serif" font-size="19" font-weight="600" fill="#171B1D"><tspan x="980" dy="0">Schema Registry</tspan><tspan x="980" dy="24">Avro Contracts</tspan></text></g>
  <g><rect x="1205" y="1570" width="300" height="110" fill="#E8EAEB" stroke="#838B8F" stroke-width="2"/><text x="1216" y="1591" font-family="Segoe UI, Arial, sans-serif" font-size="14" fill="#525A5E">«Security Service»</text><text x="1355" y="1623" text-anchor="middle" font-family="Segoe UI, Arial, sans-serif" font-size="19" font-weight="600" fill="#171B1D"><tspan x="1355" dy="0">HashiCorp Vault</tspan><tspan x="1355" dy="24">Secrets + TLS</tspan></text></g>
  <g><rect x="1580" y="1570" width="300" height="110" fill="#E8EAEB" stroke="#838B8F" stroke-width="2"/><text x="1591" y="1591" font-family="Segoe UI, Arial, sans-serif" font-size="14" fill="#525A5E">«Monitoring Service»</text><text x="1730" y="1623" text-anchor="middle" font-family="Segoe UI, Arial, sans-serif" font-size="19" font-weight="600" fill="#171B1D"><tspan x="1730" dy="0">Observability</tspan><tspan x="1730" dy="24">Lag · Errors · DLQ</tspan></text></g>
  <g><rect x="1955" y="1570" width="300" height="110" fill="#E8EAEB" stroke="#838B8F" stroke-width="2"/><text x="1966" y="1591" font-family="Segoe UI, Arial, sans-serif" font-size="14" fill="#525A5E">«Control Service»</text><text x="2105" y="1623" text-anchor="middle" font-family="Segoe UI, Arial, sans-serif" font-size="19" font-weight="600" fill="#171B1D"><tspan x="2105" dy="0">Reconciliation</tspan><tspan x="2105" dy="24">Core ↔ MongoDB</tspan></text></g>
  <g><rect x="2330" y="1570" width="720" height="110" fill="#E8EAEB" stroke="#838B8F" stroke-width="2"/><text x="2341" y="1591" font-family="Segoe UI, Arial, sans-serif" font-size="14" fill="#525A5E">«Architecture Decision»</text><text x="2690" y="1623.5" text-anchor="middle" font-family="Segoe UI, Arial, sans-serif" font-size="18" font-weight="600" fill="#171B1D"><tspan x="2690" dy="0">Ordering semantics: key = accountId/customerId · at-least-once</tspan><tspan x="2690" dy="23">eventId + sourceSequence · no global ordering</tspan></text></g>

  <g><polyline points="755,1625 780,1625 780,1535 2290,1535 2290,1405" fill="none" stroke="#D0A900" stroke-width="3"  marker-end="url(#arrowOrange)"/><rect x="1214" y="1493" width="419" height="26" fill="#F7F8F8" opacity="0.92"/><text x="1220" y="1513" font-family="Segoe UI, Arial, sans-serif" font-size="18" fill="#525A5E">initial load before consuming from T0</text></g>
  <g><polyline points="980,1570 980,1505 1960,1505" fill="none" stroke="#3F474B" stroke-width="3" stroke-dasharray="9 7" marker-end="url(#arrow)"/></g>
  <g><polyline points="1355,1570 1355,1505 1960,1505" fill="none" stroke="#3F474B" stroke-width="3" stroke-dasharray="9 7" marker-end="url(#arrow)"/></g>
  <g><polyline points="1730,1570 1730,1505 1960,1505" fill="none" stroke="#3F474B" stroke-width="3" stroke-dasharray="9 7" marker-end="url(#arrow)"/></g>
  <g><polyline points="2105,1570 2105,1505 2460,1405" fill="none" stroke="#3F474B" stroke-width="3" stroke-dasharray="9 7" marker-end="url(#arrow)"/></g>

  <g><polyline points="2460,1215 2460,1060 1090,1060 1090,905" fill="none" stroke="#4C83A8" stroke-width="3" stroke-dasharray="10 7" marker-end="url(#arrowBlue)"/><rect x="1794" y="1020" width="265" height="26" fill="#F7F8F8" opacity="0.92"/><text x="1800" y="1040" font-family="Segoe UI, Arial, sans-serif" font-size="18" fill="#525A5E">materialized read model</text></g>

  <g transform="translate(105 1750)">
    <rect x="0" y="0" width="20" height="20" fill="#56ED39" stroke="#32B526"/><text x="30" y="17" font-family="Segoe UI, Arial, sans-serif" font-size="17" fill="#171B1D">Existing application/service</text>
    <rect x="330" y="0" width="20" height="20" fill="#FFF36A" stroke="#D0A900"/><text x="360" y="17" font-family="Segoe UI, Arial, sans-serif" font-size="17" fill="#171B1D">Proposed CDC component</text>
    <rect x="700" y="0" width="20" height="20" fill="#B9DAF2" stroke="#4C83A8"/><text x="730" y="17" font-family="Segoe UI, Arial, sans-serif" font-size="17" fill="#171B1D">Event / data object</text>
    <line x1="1010" y1="10" x2="1080" y2="10" stroke="#3F474B" stroke-width="3"/><text x="1095" y="17" font-family="Segoe UI, Arial, sans-serif" font-size="17" fill="#171B1D">Synchronous flow</text>
    <line x1="1360" y1="10" x2="1430" y2="10" stroke="#3F474B" stroke-width="3" stroke-dasharray="8 6"/><text x="1445" y="17" font-family="Segoe UI, Arial, sans-serif" font-size="17" fill="#171B1D">Dependency / control</text>
  </g>
</svg>